<svg xmlns="http://www.w3.org/2000/svg" width="640" height="643" viewBox="0 0 640 643">
  <g id="Group_72" data-name="Group 72" transform="translate(0 -56.826)">
    <path id="Path_763" data-name="Path 763" d="M912.882,745.973c0,26.462-143.267,47.916-320,47.916s-320-21.454-320-47.916c0-18.734,71.814-34.963,176.475-42.836,43.159-3.256,91.923-5.08,143.525-5.08,21.213,0,41.941.309,61.987.9C801.935,703.281,912.882,722.685,912.882,745.973Z" transform="translate(-272.882 -94.063)" fill="#3f3d56"/>
    <ellipse id="Ellipse_27" data-name="Ellipse 27" cx="122.839" cy="14.942" rx="122.839" ry="14.942" transform="translate(155.871 631.817)" opacity="0.1"/>
    <ellipse id="Ellipse_28" data-name="Ellipse 28" cx="116.129" cy="123.654" rx="116.129" ry="123.654" transform="translate(162.064 410.27)" fill="#3f3d56"/>
    <rect id="Rectangle_261" data-name="Rectangle 261" width="72.258" height="65.949" transform="translate(242.581 607.086)" fill="#7be495"/>
    <path id="Path_764" data-name="Path 764" d="M396.629,607.614l-4.129,22.67,26.839,4.122,17.548-10.3-1.032-16.487Z" transform="translate(12.661 15.444)" fill="#575a89"/>
    <path id="Path_765" data-name="Path 765" d="M538.639,303.575s-2.064,23.7-7.226,24.731,11.355,42.248,11.355,42.248h24.774l19.613-5.152-9.29-22.67s-12.387-16.487-3.1-29.883S538.639,303.575,538.639,303.575Z" transform="translate(-264.574 -106.092)" fill="#a0616a"/>
    <path id="Path_766" data-name="Path 766" d="M538.639,303.575s-2.064,23.7-7.226,24.731,11.355,42.248,11.355,42.248h24.774l19.613-5.152-9.29-22.67s-12.387-16.487-3.1-29.883S538.639,303.575,538.639,303.575Z" transform="translate(-264.574 -106.092)" opacity="0.1"/>
    <path id="Path_767" data-name="Path 767" d="M488.808,479.679s-26.839,51.522-5.161,61.827,26.839,9.274,26.839,12.365-4.129,2.061-2.064,7.213-4.129,25.761,2.064,38.127,4.129,21.639,4.129,21.639,0,1.03,2.065,5.152,3.1,7.213,2.064,9.274-7.226,15.457-1.032,18.548,38.194,5.152,41.29,0-3.1-8.244,0-11.335,5.161-4.122,3.1-6.182-4.129-27.822-4.129-27.822,5.161-29.883,3.1-34-5.161-8.244-3.1-11.335,4.129-2.061,5.161-6.182,3.1-13.4,3.1-13.4l11.355-1.031,26.839,5.152s29.936,32.974,62.968,43.279c0,0,9.29,9.274,12.387,9.274s3.1,0,2.065,2.061-4.129,2.061-2.065,4.122,5.161-1.03,3.1,2.061-4.129,3.091-2.064,5.152-1.032,13.4-1.032,14.426-9.29,97.893-6.193,99.953,46.452,8.244,49.548,0-2.064-18.548-2.064-18.548,15.484-123.654,11.355-131.9-18.581-45.34-96-69.04c0,0-21.678-4.122-21.678-7.213s-2.065-22.67-6.194-23.7-27.871-2.061-27.871-2.061l-29.936,9.274-41.29-7.213Z" transform="translate(-266.356 -100.838)" fill="#2f2e41"/>
    <path id="Path_768" data-name="Path 768" d="M523.592,647.648,518.431,666.2s-4.129,29.883,1.032,37.1c4.054,5.666,11.292,12.6,24.717,13.821a16.589,16.589,0,0,0,17.32-11.456,5.134,5.134,0,0,0,.286-1.334c0-2.061-3.1-26.792-3.1-26.792l-5.161-25.761-1.032-7.213Z" transform="translate(-265.011 -95.692)" fill="#2f2e41"/>
    <path id="Path_769" data-name="Path 769" d="M669.642,733.839s-5.161-5.152-6.193,0-5.161,26.792,2.064,27.822S741.9,773,749.125,768.874s20.645-10.3,12.387-13.4-32-12.365-32-12.365-13.419-17.518-15.484-18.548-13.419,1.03-18.581,5.152S669.642,733.839,669.642,733.839Z" transform="translate(-260.351 -93.264)" fill="#2f2e41"/>
    <ellipse id="Ellipse_29" data-name="Ellipse 29" cx="32" cy="31.944" rx="32" ry="31.944" transform="translate(266.839 155.234)" fill="#a0616a"/>
    <path id="Path_770" data-name="Path 770" d="M561.877,364.772l-12.387-13.4-13.731-26.792s-10.011-3.091-12.076,2.061-39.226,21.639-39.226,21.639,9.29,86.558,5.161,94.8S478.264,484.3,484.457,487.4s35.1,0,44.387,4.122,36.129,4.122,43.355-1.03,9.29-9.274,16.516-6.183c6.152,2.632,20.532-87.342,24.673-114.154a12.2,12.2,0,0,0-5.066-11.86c-9.262-6.485-25.944-17.662-28.9-16.188C575.3,344.163,561.877,364.772,561.877,364.772Z" transform="translate(-266.134 -105.462)" fill="#575a89"/>
    <path id="Path_771" data-name="Path 771" d="M602.883,359.557h0a12.228,12.228,0,0,1,9.2,10.506l8.35,75.021s-20.645,44.309-30.968,14.426S602.883,359.557,602.883,359.557Z" transform="translate(-262.753 -104.37)" fill="#575a89"/>
    <path id="Path_772" data-name="Path 772" d="M600.9,449.74l22.71-6.183s4.129,28.853,8.258,28.853-14.452,16.487-23.742,14.426-22.71-9.274-23.742-14.426,9.29-26.792,9.29-26.792Z" transform="translate(-262.836 -101.812)" fill="#575a89"/>
    <path id="Path_773" data-name="Path 773" d="M539.634,308.956c2.176-4.79,1.8-10.376,3.6-15.319A18.313,18.313,0,0,1,571.053,285c2.314,1.647,4.634,3.961,7.458,3.647,3.042-.339,5.755-3.726,8.552-2.485,3.1,1.376,2.262,6.921,5.4,8.2,1.653.674,3.606-.364,4.56-1.871a11.552,11.552,0,0,0,1.327-5.128c.433-4.395.825-9.046-1.084-13.03a31.187,31.187,0,0,1-2.094-4.215,14.394,14.394,0,0,1-.4-4.157c-.018-5.166-.4-10.554-3-15.018-2.89-4.953-8.232-8.121-13.8-9.5s-11.411-1.17-17.133-.687c-9.459.8-19.323,2.513-26.775,8.383a10.464,10.464,0,0,0-2.574,2.7,13.928,13.928,0,0,0-1.371,3.958,81.771,81.771,0,0,1-7.193,18.834,40.83,40.83,0,0,0-3.711,8c-.79,2.838-.737,6.073.917,8.512,1.347,1.986,3.5,3.045,5.192,4.668,1.676,1.609,2.46,4.7,4.317,5.922,1.621,1.064,3.563.313,5.216,1.44C536.981,304.623,537.134,307.8,539.634,308.956Z" transform="translate(-264.952 -107.998)" fill="#2f2e41"/>
    <path id="Path_774" data-name="Path 774" d="M564.382,378.74l3.1-6.183s45.419,13.4,54.71,25.761c0,0,22.71-14.426,35.1-12.365l12.387,2.061-38.193,34L582.963,417.9Z" transform="translate(-263.479 -103.974)" fill="#f2f2f2"/>
    <path id="Path_775" data-name="Path 775" d="M563.7,372.557l-42.323,58.736,60.9,29.883s5.694,3.091,10.073,0l40.508-18.548,38.194-54.614-38.194,19.579s-4.129-8.244-12.387-4.122Z" transform="translate(-264.866 -103.974)" fill="#7be495"/>
    <path id="Path_776" data-name="Path 776" d="M625.543,475.286l8.258-21.639s18.58-23.7,8.258-35.035-21.677,32.974-21.677,32.974Z" transform="translate(-261.672 -102.628)" fill="#a0616a"/>
    <path id="Path_777" data-name="Path 777" d="M533.079,471.526,551.1,456.943s27.984-11.2,24.752-26.171-35.324,17.667-35.324,17.667Z" transform="translate(-264.488 -102.321)" fill="#a0616a"/>
    <path id="Path_778" data-name="Path 778" d="M490.653,369.258h-1.032s-16-19.063-19.1,6.7S457.1,487.244,483.944,490.335s45.935-12.881,45.935-12.881,19.613-29.883,12.387-29.883c-3.5,0-13-1.568-21.677-1.031-9.252.573-17.565,3.175-17.032.515C504.589,441.9,519.556,376.471,490.653,369.258Z" transform="translate(-266.653 -104.281)" opacity="0.1"/>
    <path id="Path_779" data-name="Path 779" d="M489.266,349.618l-4.129-2.061s-16.516,3.091-19.613,28.853S452.1,487.7,478.943,490.789s62.968-4.122,62.968-4.122,7.226-39.157,0-39.157-44.387,5.152-43.355,0S518.169,356.831,489.266,349.618Z" transform="translate(-266.814 -104.735)" fill="#575a89"/>
    <path id="Path_780" data-name="Path 780" d="M338,353.629l11.383-17.416,7.2,28.751L338,373.207Z" transform="translate(10.903 7.18)" fill="#575a89"/>
    <ellipse id="Ellipse_30" data-name="Ellipse 30" cx="27.871" cy="27.822" rx="27.871" ry="27.822" transform="translate(87.198 56.826)" fill="#f2f2f2"/>
    <rect id="Rectangle_262" data-name="Rectangle 262" width="66.065" height="65.949" transform="translate(16.037 324.769)" fill="#f2f2f2"/>
  </g>
</svg>
