<svg xmlns="http://www.w3.org/2000/svg" width="468" height="482" viewBox="0 0 468 482">
  <g id="Group_73" data-name="Group 73" transform="translate(0 0)">
    <path id="Path_785" data-name="Path 785" d="M287.355,717.329c7.876,18.793-1.083,57.2-1.083,57.2s-33.649-20.5-41.525-39.3-4.723-38.035,7.043-42.978S279.479,698.537,287.355,717.329Z" transform="translate(-240.412 -293.007)" fill="#e6e6e6"/>
    <ellipse id="Ellipse_31" data-name="Ellipse 31" cx="10.806" cy="10.82" rx="10.806" ry="10.82" transform="translate(241.403 153.886)" fill="#47cacc"/>
    <ellipse id="Ellipse_32" data-name="Ellipse 32" cx="10.806" cy="10.82" rx="10.806" ry="10.82" transform="translate(241.403 82.216)" fill="#e7b7c8"/>
    <ellipse id="Ellipse_33" data-name="Ellipse 33" cx="10.806" cy="10.82" rx="10.806" ry="10.82" transform="translate(241.403 10.546)" fill="#cdb3d4"/>
    <path id="Path_786" data-name="Path 786" d="M686.713,80.112a3.259,3.259,0,0,0-3.254,3.258v36.215a3.259,3.259,0,0,0,3.254,3.258H859.9a3.26,3.26,0,0,0,3.254-3.258V83.37a3.26,3.26,0,0,0-3.254-3.258Z" transform="translate(-395.149 -80.112)" fill="#e6e6e6"/>
    <path id="Path_787" data-name="Path 787" d="M689.243,84.011a1.89,1.89,0,0,0-1.886,1.889v33.872a1.89,1.89,0,0,0,1.887,1.889H860.086a1.889,1.889,0,0,0,1.886-1.889V85.9a1.889,1.889,0,0,0-1.886-1.889Z" transform="translate(-396.51 -81.471)" fill="#fff"/>
    <path id="Path_788" data-name="Path 788" d="M857.107,124.258a3.069,3.069,0,0,0,0-6.138H712.6a3.069,3.069,0,0,0,0,6.138Z" transform="translate(-404.257 -93.356)" fill="#e6e6e6"/>
    <path id="Path_789" data-name="Path 789" d="M774.784,103.794a3.069,3.069,0,0,0,0-6.138H712.6a3.069,3.069,0,0,0,0,6.138Z" transform="translate(-404.257 -86.225)" fill="#cdb3d4"/>
    <path id="Path_790" data-name="Path 790" d="M686.713,190.112a3.259,3.259,0,0,0-3.254,3.258v36.215a3.26,3.26,0,0,0,3.254,3.258H859.9a3.26,3.26,0,0,0,3.254-3.258V193.37a3.26,3.26,0,0,0-3.254-3.258Z" transform="translate(-395.149 -118.442)" fill="#e6e6e6"/>
    <path id="Path_791" data-name="Path 791" d="M689.243,194.011a1.89,1.89,0,0,0-1.886,1.889v33.872a1.89,1.89,0,0,0,1.887,1.889H860.086a1.889,1.889,0,0,0,1.886-1.889V195.9a1.889,1.889,0,0,0-1.886-1.889Z" transform="translate(-396.51 -119.8)" fill="#fff"/>
    <path id="Path_792" data-name="Path 792" d="M857.107,234.258a3.069,3.069,0,0,0,0-6.138H712.6a3.069,3.069,0,0,0,0,6.138Z" transform="translate(-404.257 -131.686)" fill="#e6e6e6"/>
    <path id="Path_793" data-name="Path 793" d="M774.784,213.794a3.069,3.069,0,0,0,0-6.138H712.6a3.069,3.069,0,0,0,0,6.138Z" transform="translate(-404.257 -124.555)" fill="#e7b7c8"/>
    <path id="Path_794" data-name="Path 794" d="M686.713,300.112a3.259,3.259,0,0,0-3.254,3.258v36.215a3.26,3.26,0,0,0,3.254,3.258H859.9a3.26,3.26,0,0,0,3.254-3.258V303.37a3.26,3.26,0,0,0-3.254-3.258Z" transform="translate(-395.149 -156.771)" fill="#e6e6e6"/>
    <path id="Path_795" data-name="Path 795" d="M689.243,304.011a1.89,1.89,0,0,0-1.886,1.889v33.872a1.89,1.89,0,0,0,1.887,1.889H860.086a1.889,1.889,0,0,0,1.886-1.889V305.9a1.889,1.889,0,0,0-1.886-1.889Z" transform="translate(-396.51 -158.13)" fill="#fff"/>
    <path id="Path_796" data-name="Path 796" d="M857.107,344.258a3.069,3.069,0,0,0,0-6.138H712.6a3.069,3.069,0,0,0,0,6.138Z" transform="translate(-404.257 -170.015)" fill="#e6e6e6"/>
    <path id="Path_797" data-name="Path 797" d="M774.784,323.794a3.069,3.069,0,0,0,0-6.138H712.6a3.069,3.069,0,0,0,0,6.138Z" transform="translate(-404.257 -162.885)" fill="#47cacc"/>
    <path id="Path_798" data-name="Path 798" d="M388.639,524.018h0a9.051,9.051,0,0,1-7.277-11.5l6.852-23.326,10.412,1.955.448,23.754a9.044,9.044,0,0,1-10.434,9.114Z" transform="translate(-289.511 -222.658)" fill="#ffbe88"/>
    <path id="Path_799" data-name="Path 799" d="M216.387,597.35l-13.015-1.955,3.254-127.052-18.221,54.73-9.761,76.883L166.28,596.7l-2.6-80.141,14.316-94.475,71.582,16.289Z" transform="translate(-57.165 -147.075)" fill="#2f2e41"/>
    <path id="Path_800" data-name="Path 800" d="M470.772,800.626h0a9.573,9.573,0,0,1-9.52-10.515l2.021-20.572a3.02,3.02,0,0,1,1.569-2.359c3.836-2.072,7.782-1.569,11.82,1.135a3,3,0,0,1,1.3,2.139l2.307,19.466a9.573,9.573,0,0,1-9.5,10.706Z" transform="translate(-317.526 -319.077)" fill="#2f2e41"/>
    <path id="Path_801" data-name="Path 801" d="M391.238,797.729h0a8.631,8.631,0,0,1-4.183-12.915l13.883-20.662c5-3.6,8.023-1.844,9.2,4.875l2.807-7.042,2.115,2.31a6.742,6.742,0,0,1,.356,8.68l-14.4,21.943a8.61,8.61,0,0,1-9.774,2.811Z" transform="translate(-291.115 -317.712)" fill="#2f2e41"/>
    <ellipse id="Ellipse_34" data-name="Ellipse 34" cx="19.522" cy="19.546" rx="19.522" ry="19.546" transform="translate(168.332 113.424)" fill="#ffbe88"/>
    <path id="Path_802" data-name="Path 802" d="M530.277,323.863l-33.188-6.515c4.275-9.129,7.7-12.218,3.9-22.153h26.68C525.321,305.486,527.594,315.145,530.277,323.863Z" transform="translate(-330.058 -155.058)" fill="#ffbe88"/>
    <path id="Path_803" data-name="Path 803" d="M500.178,463.142l-78.089-22.153c15.641-34.468,18.918-72.311,14.28-112.314a7.236,7.236,0,0,1,6.6-8.056c10.186-.84,20.806-1.918,31.826-3.424l12.364,8.47,14.316-3.258c4.594,2.229,9.221,4.083,13.4,5.932a16.776,16.776,0,0,1,9.106,20.625C511.258,387.437,502.742,425.547,500.178,463.142Z" transform="translate(-303.864 -162.724)" fill="#cde0c9"/>
    <path id="Path_804" data-name="Path 804" d="M403.056,435.739l-14.967-1.955,35.456-102.291c1.8-5.2,6.276-8.019,11.722-8.8l5.206.652-3.9,60.594Z" transform="translate(-291.989 -164.641)" fill="#cde0c9"/>
    <path id="Path_805" data-name="Path 805" d="M577.227,421.236h0a11.861,11.861,0,0,1-11.865-7.286l-14.273-34.4L562.8,337.195l3.1,1.973q.447.285.883.584a27.9,27.9,0,0,1,11.439,27.722l-3.055,17.935,12.6,27.089A11.866,11.866,0,0,1,577.227,421.236Z" transform="translate(-348.918 -169.693)" fill="#cde0c9"/>
    <path id="Path_806" data-name="Path 806" d="M519.686,239.719h0a20.712,20.712,0,0,1,9.471,2.792c.664.387.357,1.782.971,2.237.773.573,2.45.225,3.134.9a20.816,20.816,0,0,1,6.178,16.76l-1.089,10.845-2.57-2.814a26.775,26.775,0,0,0-17.864-8.781q-.437-.03-.876-.047l1.977-3.464-3.436,3.44a33.414,33.414,0,0,0-4.681.382l2.629-4.607-5.045,5.051h0a13.491,13.491,0,0,0-9.425,7.7l-.56,1.243L497.873,261a20.84,20.84,0,0,1,21.814-21.283Z" transform="translate(-330.33 -135.719)" fill="#2f2e41"/>
    <ellipse id="Ellipse_35" data-name="Ellipse 35" cx="1.568" cy="3.729" rx="1.568" ry="3.729" transform="translate(205.936 133.02)" fill="#9f616a"/>
    <ellipse id="Ellipse_36" data-name="Ellipse 36" cx="1.568" cy="3.729" rx="1.568" ry="3.729" transform="translate(166.736 131.843)" fill="#9f616a"/>
    <path id="Path_807" data-name="Path 807" d="M609.443,364.5h0a9.053,9.053,0,0,1,6.276,12.074l-8.8,22.659L596.706,396.4l1.568-23.707a9.042,9.042,0,0,1,11.169-8.194Z" transform="translate(-364.85 -179.119)" fill="#ffbe88"/>
    <path id="Path_808" data-name="Path 808" d="M348.946,363.524,332.677,353.1l13.666-28.017,16.919,6.515-8.46,24.759Z" transform="translate(-116.19 -113.276)" fill="#cde0c9"/>
    <path id="Path_809" data-name="Path 809" d="M242.944,739.042H45.288V737.67h197.9Z" transform="translate(-15.817 -257.042)" fill="#3f3d56"/>
  </g>
</svg>
